{"title":"The Block - S12E01 - The Biggest Block Begins","uid":15611897,"size":1665695461,"categoryP":"video","categoryS":"tv_shows","magnet":"?xt=urn:btih:d9b61719eb4b6b1505008afd4013da014e93a16b&amp;dn=The+Block+-+S12E01+-+The+Biggest+Block+Begins&amp;tr=udp%3A%2F%2Ftracker.leechers-paradise.org%3A6969&amp;tr=udp%3A%2F%2Fzer0day.ch%3A1337&amp;tr=udp%3A%2F%2Fopen.demonii.com%3A1337&amp;tr=udp%3A%2F%2Ftracker.coppersurfer.tk%3A6969&amp;tr=udp%3A%2F%2Fexodus.desync.com%3A6969","seeders":5,"leechers":0,"uploader":"Bullrout","files":1,"time":1471791342,"description":"The Block - S12E01 - The Biggest Block Begins\r\n\r\nFive couples make their way to Port Melbourne where they meet Scotty Cam at the biggest Block ever. Our teams hit the ground running with a 48 hour $5,000 challenge.\r\n\r\nComplete name                            : The Block - S12E01 - The Biggest Block Begins.mkv\r\nFormat                                   : Matroska\r\nFormat version                           : Version 4 / Version 2\r\nFile size                                : 1.55 GiB\r\nDuration                                 : 1h 6mn\r\nOverall bit rate mode                    : Variable\r\nOverall bit rate                         : 3 325 Kbps\r\nEncoded date                             : UTC 2016-08-21 12:27:32\r\nWriting application                      : mkvmerge v9.3.1 ('Mask Machine') 64bit\r\nWriting library                          : libebml v1.3.4 + libmatroska v1.4.5\r\n\r\nVideo\r\nID                                       : 2\r\nFormat                                   : AVC\r\nFormat/Info                              : Advanced Video Codec\r\nFormat profile                           :   \r\nFormat settings, CABAC                   : Yes\r\nFormat settings, ReFrames                : 3 frames\r\nCodec ID                                 : V_MPEG4/ISO/AVC\r\nDuration                                 : 1h 6mn\r\nBit rate mode                            : Variable\r\nBit rate                                 : 2 939 Kbps\r\nMaximum bit rate                         : 3 000 Kbps\r\nWidth                                    : 1 280 pixels\r\nHeight                                   : 720 pixels\r\nDisplay aspect ratio                     : 16:9\r\nFrame rate mode                          : Constant\r\nFrame rate                               : 25.000 fps\r\nStandard                                 : PAL\r\nColor space                              : YUV\r\nChroma subsampling                       : 4:2:0\r\nBit depth                                : 8 bits\r\nScan type                                : Progressive\r\nBits/(Pixel*Frame)                       : 0.128\r\nStream size                              : 1.37 GiB (88%)\r\nWriting library                          : x264 core 112\r\nDefault                                  : Yes\r\nForced                                   : No\r\nColor range                              : Limited\r\nColor primaries                          : BT.709\r\nTransfer characteristics                 : BT.709\r\nMatrix coefficients                      : BT.709\r\n\r\nAudio\r\nID                                       : 1\r\nFormat                                   : AC-3\r\nFormat/Info                              : Audio Coding 3\r\nMode extension                           : CM (complete main)\r\nFormat settings, Endianness              : Big\r\nCodec ID                                 : A_AC3\r\nDuration                                 : 1h 6mn\r\nBit rate mode                            : Constant\r\nBit rate                                 : 384 Kbps\r\nChannel(s)                               : 6 channels\r\nChannel positions                        : Front: L C R, Side: L R, LFE\r\nSampling rate                            : 48.0 KHz\r\nFrame rate                               : 31.250 fps (1536 spf)\r\nCompression mode                         : Lossy\r\nStream size                              : 183 MiB (12%)\r\nDefault                                  : Yes\r\nForced                                   : No","torrent":{"xt":"urn:btih:d9b61719eb4b6b1505008afd4013da014e93a16b","amp;dn":"The+Block+-+S12E01+-+The+Biggest+Block+Begins","amp;tr":["udp%3A%2F%2Ftracker.leechers-paradise.org%3A6969","udp%3A%2F%2Fzer0day.ch%3A1337","udp%3A%2F%2Fopen.demonii.com%3A1337","udp%3A%2F%2Ftracker.coppersurfer.tk%3A6969","udp%3A%2F%2Fexodus.desync.com%3A6969"],"infoHash":"d9b61719eb4b6b1505008afd4013da014e93a16b","infoHashBuffer":{"type":"Buffer","data":[217,182,23,25,235,75,107,21,5,0,138,253,64,19,218,1,78,147,161,107]},"announce":[],"urlList":[]}}